<svg width="41" height="40" viewBox="0 0 41 40" fill="none" xmlns="http://www.w3.org/2000/svg">
<path d="M37.2625 17.75L34 14.4897V6.5C34 5.2625 32.9875 4.25 31.75 4.25H29.5C28.2625 4.25 27.25 5.2625 27.25 6.5V7.74425L22.75 3.24875C22.1357 2.66825 21.5732 2 20.5 2C19.4268 2 18.8643 2.66825 18.25 3.24875L3.7375 17.75C3.0355 18.4812 2.5 19.0145 2.5 20C2.5 21.2668 3.472 22.25 4.75 22.25H7V35.75C7 36.9875 8.0125 38 9.25 38H13.75C14.9926 38 16 36.9926 16 35.75V26.75C16 25.5125 17.0125 24.5 18.25 24.5H22.75C23.9875 24.5 25 25.5125 25 26.75V35.75C25 36.9926 24.8824 38 26.125 38H31.75C32.9875 38 34 36.9875 34 35.75V22.25H36.25C37.528 22.25 38.5 21.2668 38.5 20C38.5 19.0145 37.9645 18.4812 37.2625 17.75Z" fill="white" stroke="white" stroke-width="2" stroke-linejoin="round"/>
</svg>
