<svg width="41" height="40" viewBox="0 0 41 40" fill="none" xmlns="http://www.w3.org/2000/svg">
<path d="M36.793 39.6875L23.0117 25.9062C21.918 26.7812 20.6602 27.474 19.2383 27.9844C17.8164 28.4948 16.3034 28.75 14.6992 28.75C10.7253 28.75 7.36198 27.3737 4.60938 24.6211C1.85677 21.8685 0.480469 18.5052 0.480469 14.5312C0.480469 10.5573 1.85677 7.19401 4.60938 4.44141C7.36198 1.6888 10.7253 0.3125 14.6992 0.3125C18.6732 0.3125 22.0365 1.6888 24.7891 4.44141C27.5417 7.19401 28.918 10.5573 28.918 14.5312C28.918 16.1354 28.6628 17.6484 28.1523 19.0703C27.6419 20.4922 26.9492 21.75 26.0742 22.8438L39.8555 36.625L36.793 39.6875ZM14.6992 24.375C17.4336 24.375 19.7578 23.418 21.6719 21.5039C23.5859 19.5898 24.543 17.2656 24.543 14.5312C24.543 11.7969 23.5859 9.47266 21.6719 7.55859C19.7578 5.64453 17.4336 4.6875 14.6992 4.6875C11.9648 4.6875 9.64062 5.64453 7.72656 7.55859C5.8125 9.47266 4.85547 11.7969 4.85547 14.5312C4.85547 17.2656 5.8125 19.5898 7.72656 21.5039C9.64062 23.418 11.9648 24.375 14.6992 24.375Z" fill="#ABAAB8"/>
</svg>
