<svg width="41" height="40" viewBox="0 0 41 40" fill="none" xmlns="http://www.w3.org/2000/svg">
<g clip-path="url(#clip0_3629_1996)">
<path fill-rule="evenodd" clip-rule="evenodd" d="M0.332031 4.21517C0.332031 1.88719 2.21923 0 4.5472 0H28.2332C30.5612 0 32.4483 1.88719 32.4483 4.21517V27.9012C32.4483 30.2291 30.5612 32.1163 28.2332 32.1163H4.5472C2.21923 32.1163 0.332031 30.2291 0.332031 27.9012V4.21517ZM7.2058 21.7288C7.2058 18.9581 9.45186 16.7121 12.2225 16.7121C12.4707 16.7121 12.7147 16.7301 12.9532 16.7649V7.51374C12.9532 6.9454 13.179 6.40037 13.5809 5.99851C13.9827 5.59663 14.5278 5.37089 15.0961 5.37089C17.8103 5.37089 20.4509 6.34523 22.4286 8.136C24.4133 9.93314 25.5746 12.4189 25.5746 15.0615C25.5746 16.245 24.6152 17.2044 23.4317 17.2044C22.2483 17.2044 21.2889 16.245 21.2889 15.0615C21.2889 13.7006 20.6937 12.3467 19.552 11.3129C18.9039 10.7261 18.1124 10.2743 17.2389 9.99186V21.6781L17.2392 21.7288C17.2392 24.4994 14.9931 26.7455 12.2225 26.7455C9.45186 26.7455 7.2058 24.4994 7.2058 21.7288ZM40.2475 10C40.2475 8.81654 39.288 7.85714 38.1046 7.85714C36.9212 7.85714 35.9617 8.81654 35.9617 10V34.9954C35.9617 35.1637 35.8949 35.3249 35.776 35.444C35.6569 35.5629 35.4957 35.6297 35.3275 35.6297H10.332C9.14857 35.6297 8.18917 36.5891 8.18917 37.7726C8.18917 38.956 9.14857 39.9154 10.332 39.9154H35.3275C36.6323 39.9154 37.8837 39.3971 38.8063 38.4743C39.7292 37.5517 40.2475 36.3003 40.2475 34.9954V10Z" fill="white"/>
</g>
<defs>
<clipPath id="clip0_3629_1996">
<rect width="40" height="40" fill="white" transform="translate(0.332031)"/>
</clipPath>
</defs>
</svg>
