<svg width="40" height="40" viewBox="0 0 40 40" fill="none" xmlns="http://www.w3.org/2000/svg">
<path d="M34.7303 7.68247C33.879 6.83081 32.8683 6.15521 31.7559 5.69428C30.6434 5.23334 29.4511 4.99609 28.2469 4.99609C27.0428 4.99609 25.8505 5.23334 24.738 5.69428C23.6256 6.15521 22.6149 6.83081 21.7636 7.68247L19.9969 9.44914L18.2303 7.68247C16.5108 5.96298 14.1787 4.99699 11.7469 4.99699C9.31522 4.99699 6.9831 5.96298 5.26361 7.68247C3.54412 9.40196 2.57813 11.7341 2.57812 14.1658C2.57812 16.5975 3.54412 18.9296 5.26361 20.6491L19.9969 35.3825L34.7303 20.6491C35.5819 19.7979 36.2575 18.7872 36.7185 17.6747C37.1794 16.5623 37.4167 15.3699 37.4167 14.1658C37.4167 12.9617 37.1794 11.7693 36.7185 10.6569C36.2575 9.54445 35.5819 8.53373 34.7303 7.68247Z" fill="#ABAAB8" stroke="#ABAAB8" stroke-width="3.5" stroke-linecap="round" stroke-linejoin="round"/>
</svg>
