<svg width="40" height="40" viewBox="0 0 40 40" fill="none" xmlns="http://www.w3.org/2000/svg">
<path d="M36.7625 17.75L33.5 14.4897V6.5C33.5 5.2625 32.4875 4.25 31.25 4.25H29C27.7625 4.25 26.75 5.2625 26.75 6.5V7.74425L22.25 3.24875C21.6357 2.66825 21.0732 2 20 2C18.9267 2 18.3642 2.66825 17.75 3.24875L3.2375 17.75C2.5355 18.4812 2 19.0145 2 20C2 21.2667 2.972 22.25 4.25 22.25H6.5V35.75C6.5 36.9875 7.5125 38 8.75 38H13.25C14.4926 38 15.5 36.9926 15.5 35.75V26.75C15.5 25.5125 16.5125 24.5 17.75 24.5H22.25C23.4875 24.5 24.5 25.5125 24.5 26.75V35.75C24.5 36.9926 24.3824 38 25.625 38H31.25C32.4875 38 33.5 36.9875 33.5 35.75V22.25H35.75C37.028 22.25 38 21.2667 38 20C38 19.0145 37.4645 18.4812 36.7625 17.75Z" stroke="#ABAAB8" stroke-width="3" stroke-linejoin="round"/>
</svg>
