<svg width="84" height="84" viewBox="0 0 84 84" fill="none" xmlns="http://www.w3.org/2000/svg">
<rect width="84" height="84" rx="4" fill="url(#paint0_linear_3286_5770)"/>
<g clip-path="url(#clip0_3286_5770)">
<path d="M35.1 55.8008V25.9008L62.7001 21.3008V51.2008M35.1 55.8008C35.1 59.6115 32.0108 62.7008 28.2 62.7008C24.3893 62.7008 21.3 59.6115 21.3 55.8008C21.3 51.99 24.3893 48.9008 28.2 48.9008C32.0108 48.9008 35.1 51.99 35.1 55.8008ZM62.7001 51.2008C62.7001 55.0115 59.6108 58.1008 55.8001 58.1008C51.9893 58.1008 48.9001 55.0115 48.9001 51.2008C48.9001 47.39 51.9893 44.3008 55.8001 44.3008C59.6108 44.3008 62.7001 47.39 62.7001 51.2008Z" stroke="white" stroke-width="6" stroke-linecap="round" stroke-linejoin="round"/>
</g>
<defs>
<linearGradient id="paint0_linear_3286_5770" x1="0" y1="0" x2="84" y2="84" gradientUnits="userSpaceOnUse">
<stop stop-color="#00FF99"/>
<stop offset="1" stop-color="#026F69"/>
</linearGradient>
<clipPath id="clip0_3286_5770">
<rect width="48" height="48" fill="white" transform="translate(18 18)"/>
</clipPath>
</defs>
</svg>
