<svg width="28" height="28" viewBox="0 0 28 28" fill="none" xmlns="http://www.w3.org/2000/svg">
<path d="M25.7322 12.4254L23.4484 10.1432V4.55039C23.4484 3.68414 22.7397 2.97539 21.8734 2.97539H20.2984C19.4322 2.97539 18.7234 3.68414 18.7234 4.55039V5.42137L15.5734 2.27452C15.1435 1.86817 14.7497 1.40039 13.9984 1.40039C13.2472 1.40039 12.8534 1.86817 12.4234 2.27452L2.26469 12.4254C1.77329 12.9373 1.39844 13.3105 1.39844 14.0004C1.39844 14.8871 2.07884 15.5754 2.97344 15.5754H4.54844V25.0254C4.54844 25.8916 5.25719 26.6004 6.12344 26.6004H9.27344C10.1433 26.6004 10.8484 25.8952 10.8484 25.0254V18.7254C10.8484 17.8591 11.5572 17.1504 12.4234 17.1504H15.5734C16.4397 17.1504 17.1484 17.8591 17.1484 18.7254V25.0254C17.1484 25.8952 17.0661 26.6004 17.9359 26.6004H21.8734C22.7397 26.6004 23.4484 25.8916 23.4484 25.0254V15.5754H25.0234C25.918 15.5754 26.5984 14.8871 26.5984 14.0004C26.5984 13.3105 26.2236 12.9373 25.7322 12.4254Z" fill="white" stroke="white" stroke-width="2" stroke-linejoin="round"/>
</svg>
