<svg width="249" height="248" viewBox="0 0 249 248" fill="none" xmlns="http://www.w3.org/2000/svg">
<rect x="0.5" width="248" height="248" rx="32" fill="url(#paint0_linear_3069_5104)"/>
<path d="M155.329 98.2287C153.548 96.4466 151.433 95.0329 149.105 94.0684C146.777 93.1039 144.282 92.6074 141.763 92.6074C139.243 92.6074 136.748 93.1039 134.42 94.0684C132.093 95.0329 129.978 96.4466 128.196 98.2287L124.5 101.925L120.803 98.2287C117.205 94.6306 112.325 92.6093 107.237 92.6093C102.148 92.6093 97.2682 94.6306 93.6702 98.2287C90.0721 101.827 88.0508 106.707 88.0508 111.795C88.0508 116.883 90.0721 121.763 93.6702 125.361L124.5 156.191L155.329 125.361C157.111 123.58 158.525 121.465 159.489 119.137C160.454 116.81 160.95 114.315 160.95 111.795C160.95 109.275 160.454 106.78 159.489 104.453C158.525 102.125 157.111 100.01 155.329 98.2287Z" fill="white" stroke="white" stroke-width="3.5" stroke-linecap="round" stroke-linejoin="round"/>
<defs>
<linearGradient id="paint0_linear_3069_5104" x1="-2.73809e-07" y1="-7.50646e-07" x2="248" y2="248" gradientUnits="userSpaceOnUse">
<stop stop-color="#00FF99"/>
<stop offset="1" stop-color="#026F69"/>
</linearGradient>
</defs>
</svg>
