<svg width="24" height="22" viewBox="0 0 24 22" fill="none" xmlns="http://www.w3.org/2000/svg">
<path fill-rule="evenodd" clip-rule="evenodd" d="M16.3302 9.44998L3.48465 0.580017C2.83465 0.168406 2.04241 0.278127 1.46984 0.708497C1.02858 1.04018 0.717787 1.56231 0.703138 2.18303V19.7627L0.703125 19.7698C0.703127 21.222 2.31139 22.1621 3.48465 21.419L16.3302 12.6026C17.3988 11.8816 17.3988 10.1709 16.3302 9.44998ZM23.2922 2.36296C23.2922 1.45562 22.5567 0.720095 21.6494 0.720095C20.7422 0.720095 20.0065 1.45562 20.0065 2.36296V19.6387C20.0065 20.546 20.7422 21.2815 21.6494 21.2815C22.5567 21.2815 23.2922 20.546 23.2922 19.6387V2.36296Z" fill="white"/>
</svg>
