<svg width="20" height="24" viewBox="0 0 20 24" fill="none" xmlns="http://www.w3.org/2000/svg">
<path fill-rule="evenodd" clip-rule="evenodd" d="M0.703125 2.96429C0.703125 1.6033 1.61455 0.5 2.73884 0.5H6.1317C7.25599 0.5 8.16741 1.6033 8.16741 2.96429V21.0357C8.16741 22.3967 7.25599 23.5 6.1317 23.5H2.73884C1.61455 23.5 0.703125 22.3967 0.703125 21.0357V2.96429ZM14.2746 0.5C13.1503 0.5 12.2388 1.6033 12.2388 2.96429V21.0357C12.2388 22.3967 13.1503 23.5 14.2746 23.5H17.6674C18.7917 23.5 19.7031 22.3967 19.7031 21.0357V2.96429C19.7031 1.6033 18.7917 0.5 17.6674 0.5H14.2746Z" fill="white"/>
</svg>
