<svg width="64" height="64" viewBox="0 0 64 64" fill="none" xmlns="http://www.w3.org/2000/svg">
<circle cx="32" cy="32" r="32" fill="white"/>
<g clip-path="url(#clip0_3180_5675)">
<path fill-rule="evenodd" clip-rule="evenodd" d="M20.875 20.7054C20.875 19.0041 22.0143 17.625 23.4196 17.625H27.6607C29.0661 17.625 30.2054 19.0041 30.2054 20.7054V43.2946C30.2054 44.9959 29.0661 46.375 27.6607 46.375H23.4196C22.0143 46.375 20.875 44.9959 20.875 43.2946V20.7054ZM37.8393 17.625C36.434 17.625 35.2946 19.0041 35.2946 20.7054V43.2946C35.2946 44.9959 36.434 46.375 37.8393 46.375H42.0803C43.4857 46.375 44.625 44.9959 44.625 43.2946V20.7054C44.625 19.0041 43.4857 17.625 42.0803 17.625H37.8393Z" fill="#0D0D0D"/>
</g>
<defs>
<clipPath id="clip0_3180_5675">
<rect width="25" height="30" fill="white" transform="translate(20 17)"/>
</clipPath>
</defs>
</svg>
