<svg width="28" height="28" viewBox="0 0 28 28" fill="none" xmlns="http://www.w3.org/2000/svg">
<path fill-rule="evenodd" clip-rule="evenodd" d="M0 2.95062C0 1.32104 1.32104 0 2.95062 0H19.5308C21.1604 0 22.4814 1.32104 22.4814 2.95062V19.5308C22.4814 21.1604 21.1604 22.4814 19.5308 22.4814H2.95062C1.32104 22.4814 0 21.1604 0 19.5308V2.95062ZM4.81164 15.2101C4.81164 13.2707 6.38388 11.6985 8.32332 11.6985C8.49706 11.6985 8.66786 11.7111 8.83484 11.7354V5.25962C8.83484 4.86178 8.99288 4.48026 9.27418 4.19896C9.55548 3.91764 9.93702 3.75962 10.3348 3.75962C12.2348 3.75962 14.0832 4.44166 15.4676 5.6952C16.8569 6.9532 17.6698 8.69322 17.6698 10.5431C17.6698 11.3715 16.9982 12.0431 16.1698 12.0431C15.3414 12.0431 14.6698 11.3715 14.6698 10.5431C14.6698 9.5904 14.2532 8.64268 13.454 7.919C13.0003 7.50826 12.4462 7.19198 11.8348 6.9943V15.1747L11.835 15.2101C11.835 17.1496 10.2628 18.7218 8.32332 18.7218C6.38388 18.7218 4.81164 17.1496 4.81164 15.2101ZM27.9408 7C27.9408 6.17158 27.2692 5.5 26.4408 5.5C25.6124 5.5 24.9408 6.17158 24.9408 7V24.4968C24.9408 24.6146 24.894 24.7274 24.8108 24.8108C24.7274 24.894 24.6146 24.9408 24.4968 24.9408H7C6.17158 24.9408 5.5 25.6124 5.5 26.4408C5.5 27.2692 6.17158 27.9408 7 27.9408H24.4968C25.4102 27.9408 26.2862 27.578 26.932 26.932C27.578 26.2862 27.9408 25.4102 27.9408 24.4968V7Z" fill="white"/>
</svg>
