<svg width="248" height="248" viewBox="0 0 248 248" fill="none" xmlns="http://www.w3.org/2000/svg">
<rect width="248" height="248" rx="32" fill="url(#paint0_linear_3076_3597)"/>
<g clip-path="url(#clip0_3076_3597)">
<path fill-rule="evenodd" clip-rule="evenodd" d="M82.1484 90.9706C82.1484 86.0993 86.0974 82.1504 90.9687 82.1504H140.532C145.403 82.1504 149.352 86.0993 149.352 90.9706V140.534C149.352 145.405 145.403 149.354 140.532 149.354H90.9687C86.0974 149.354 82.1484 145.405 82.1484 140.534V90.9706ZM96.5318 127.618C96.5318 121.82 101.232 117.12 107.029 117.12C107.549 117.12 108.059 117.158 108.558 117.231V97.8729C108.558 96.6836 109.031 95.5432 109.872 94.7023C110.712 93.8613 111.853 93.389 113.042 93.389C118.722 93.389 124.247 95.4278 128.386 99.175C132.539 102.935 134.969 108.137 134.969 113.667C134.969 116.143 132.961 118.151 130.485 118.151C128.008 118.151 126.001 116.143 126.001 113.667C126.001 110.819 124.755 107.986 122.366 105.823C121.01 104.595 119.354 103.649 117.526 103.058V127.512L117.527 127.618C117.527 133.415 112.827 138.115 107.029 138.115C101.232 138.115 96.5318 133.415 96.5318 127.618ZM165.671 103.075C165.671 100.599 163.664 98.5915 161.188 98.5915C158.711 98.5915 156.704 100.599 156.704 103.075V155.378C156.704 155.73 156.564 156.068 156.315 156.317C156.066 156.566 155.729 156.706 155.376 156.706H103.073C100.597 156.706 98.5895 158.713 98.5895 161.189C98.5895 163.666 100.597 165.673 103.073 165.673H155.376C158.107 165.673 160.725 164.589 162.656 162.658C164.587 160.727 165.671 158.109 165.671 155.378V103.075Z" fill="white"/>
</g>
<defs>
<linearGradient id="paint0_linear_3076_3597" x1="0" y1="0" x2="248" y2="248" gradientUnits="userSpaceOnUse">
<stop stop-color="#00FF99"/>
<stop offset="1" stop-color="#026F69"/>
</linearGradient>
<clipPath id="clip0_3076_3597">
<rect width="83.7" height="83.7" fill="white" transform="translate(82.1484 82.1504)"/>
</clipPath>
</defs>
</svg>
