<svg width="23" height="22" viewBox="0 0 23 22" fill="none" xmlns="http://www.w3.org/2000/svg">
<path fill-rule="evenodd" clip-rule="evenodd" d="M7.07607 9.44998L19.9216 0.580017C20.5716 0.168406 21.3638 0.278127 21.9364 0.708497C22.3777 1.04018 22.6885 1.56231 22.7031 2.18303V19.7627L22.7031 19.7698C22.7031 21.222 21.0949 22.1621 19.9216 21.419L7.07607 12.6026C6.00743 11.8816 6.00743 10.1709 7.07607 9.44998ZM0.114004 2.36296C0.114004 1.45562 0.84951 0.720095 1.75686 0.720095C2.66405 0.720095 3.39972 1.45562 3.39972 2.36296V19.6387C3.39972 20.546 2.66405 21.2815 1.75686 21.2815C0.84951 21.2815 0.114004 20.546 0.114004 19.6387V2.36296Z" fill="white"/>
</svg>
