<svg width="44" height="44" viewBox="0 0 44 44" fill="none" xmlns="http://www.w3.org/2000/svg">
<path d="M8.41956 36.8156C9.36857 35.7527 13.8132 30.8616 15.1157 30.8616H28.8875C30.7749 30.8616 34.6279 34.916 35.5828 36.3451M41.7563 21.9992C41.7563 32.9097 32.9116 41.7543 22.0012 41.7543C11.0908 41.7543 2.24609 32.9097 2.24609 21.9992C2.24609 11.0888 11.0908 2.24414 22.0012 2.24414C32.9116 2.24414 41.7563 11.0888 41.7563 21.9992ZM29.0777 15.266C29.0777 11.497 25.896 8.41761 22.0018 8.41761C18.1076 8.41761 14.9259 11.497 14.9259 15.266C14.9259 19.0349 18.1076 22.1143 22.0018 22.1143C25.896 22.1143 29.0777 19.0349 29.0777 15.266Z" stroke="white" stroke-width="3.5"/>
</svg>
