<svg width="40" height="40" viewBox="0 0 40 40" fill="none" xmlns="http://www.w3.org/2000/svg">
<path d="M36.625 39.6875L22.8438 25.9062C21.75 26.7812 20.4922 27.474 19.0703 27.9844C17.6484 28.4948 16.1354 28.75 14.5312 28.75C10.5573 28.75 7.19401 27.3737 4.44141 24.6211C1.6888 21.8685 0.3125 18.5052 0.3125 14.5312C0.3125 10.5573 1.6888 7.19401 4.44141 4.44141C7.19401 1.6888 10.5573 0.3125 14.5312 0.3125C18.5052 0.3125 21.8685 1.6888 24.6211 4.44141C27.3737 7.19401 28.75 10.5573 28.75 14.5312C28.75 16.1354 28.4948 17.6484 27.9844 19.0703C27.474 20.4922 26.7812 21.75 25.9062 22.8438L39.6875 36.625L36.625 39.6875ZM14.5312 24.375C17.2656 24.375 19.5898 23.418 21.5039 21.5039C23.418 19.5898 24.375 17.2656 24.375 14.5312C24.375 11.7969 23.418 9.47266 21.5039 7.55859C19.5898 5.64453 17.2656 4.6875 14.5312 4.6875C11.7969 4.6875 9.47266 5.64453 7.55859 7.55859C5.64453 9.47266 4.6875 11.7969 4.6875 14.5312C4.6875 17.2656 5.64453 19.5898 7.55859 21.5039C9.47266 23.418 11.7969 24.375 14.5312 24.375Z" fill="white"/>
</svg>
