<svg width="28" height="22" viewBox="0 0 28 22" fill="none" xmlns="http://www.w3.org/2000/svg">
<path fill-rule="evenodd" clip-rule="evenodd" d="M18.0586 3.01325C18.1055 0.631765 15.4537 -0.798835 13.4896 0.560145L13.4838 0.564225L5.74245 6.00253H3.05859C1.41698 6.00253 0.0585938 7.36091 0.0585938 9.00253V13.0025C0.0585938 14.6441 1.41698 16.0025 3.05859 16.0025H5.73653L13.295 21.4344L13.3096 21.4448C15.2524 22.789 18.0057 21.397 18.0584 19.0246L18.0586 19.0024V3.01325ZM23.5408 3.82879C24.1792 3.30077 25.1248 3.39023 25.6528 4.02857C27.3112 6.03355 28.003 8.44291 28.003 11.0025C28.003 13.562 27.3112 15.9714 25.6528 17.9764C25.1248 18.6146 24.1792 18.7042 23.5408 18.1762C22.9026 17.648 22.8132 16.7026 23.3412 16.0642C24.4722 14.6969 25.003 13.0054 25.003 11.0025C25.003 8.99949 24.4722 7.30803 23.3412 5.94069C22.8132 5.30233 22.9026 4.35681 23.5408 3.82879ZM20.4592 7.57891C21.2096 7.22779 22.1024 7.55139 22.4536 8.30173C22.8456 9.13955 23.0374 10.0645 23.0042 11.0024C23.0374 11.9402 22.8456 12.8652 22.4536 13.7031C22.1024 14.4534 21.2096 14.777 20.4592 14.4259C19.7089 14.0747 19.3852 13.1818 19.7364 12.4315C19.9333 12.0106 20.0271 11.545 20.0047 11.0737C20.0024 11.0262 20.0024 10.9786 20.0047 10.931C20.0271 10.4598 19.9333 9.99419 19.7364 9.57329C19.3852 8.82294 19.7089 7.93005 20.4592 7.57891Z" fill="white"/>
</svg>
